<svg width="27" height="27" viewBox="0 0 27 27" fill="none" xmlns="http://www.w3.org/2000/svg">
<path d="M26.0662 13.2507C26.0662 11.3718 24.8474 9.74683 23.1209 9.08667C23.8826 7.46167 23.5779 5.43042 22.2576 4.05933C20.8865 2.73901 18.8553 2.43433 17.2303 3.19604C16.5701 1.46948 14.9451 0.250732 13.0662 0.250732C11.1365 0.250732 9.51151 1.46948 8.85135 3.19604C7.22635 2.43433 5.1951 2.73901 3.87479 4.05933C2.5037 5.43042 2.19901 7.46167 2.96073 9.08667C1.23417 9.74683 0.0661964 11.3718 0.0661964 13.2507C0.0661964 15.1804 1.23417 16.8054 2.96073 17.4656C2.19901 19.0906 2.5037 21.1218 3.87479 22.4421C5.1951 23.8132 7.22635 24.1179 8.85135 23.3562C9.51151 25.0828 11.1365 26.2507 13.0662 26.2507C14.9451 26.2507 16.5701 25.0828 17.2303 23.3562C18.906 24.1179 20.8865 23.8132 22.2576 22.4421C23.5779 21.1218 23.8826 19.0906 23.1209 17.4656C24.8474 16.8054 26.0662 15.1804 26.0662 13.2507ZM9.8162 8.37573C10.6795 8.37573 11.4412 9.13745 11.4412 10.0007C11.4412 10.9148 10.6795 11.6257 9.8162 11.6257C8.90213 11.6257 8.1912 10.9148 8.1912 10.0007C8.1912 9.13745 8.90213 8.37573 9.8162 8.37573ZM10.4256 17.6179C10.1209 17.9226 9.56229 17.9226 9.2576 17.6179L8.69901 17.0593C8.39432 16.7546 8.39432 16.196 8.69901 15.8914L15.656 8.93433C15.9607 8.62964 16.5193 8.62964 16.824 8.93433L17.3826 9.49292C17.6873 9.79761 17.6873 10.3562 17.3826 10.6609L10.4256 17.6179ZM16.3162 18.1257C15.4021 18.1257 14.6912 17.4148 14.6912 16.5007C14.6912 15.6375 15.4021 14.8757 16.3162 14.8757C17.1795 14.8757 17.9412 15.6375 17.9412 16.5007C17.9412 17.4148 17.1795 18.1257 16.3162 18.1257Z" fill="#7C58D3"/>
</svg>
