<svg width="26" height="27" viewBox="0 0 26 27" fill="none" xmlns="http://www.w3.org/2000/svg">
<path d="M23.7303 4.51636L13.9803 0.453857C13.6756 0.352295 13.3709 0.301514 13.0662 0.301514C12.7107 0.301514 12.406 0.352295 12.1014 0.453857L2.35135 4.51636C1.43729 4.92261 0.878696 5.78589 0.878696 6.75073C0.878696 16.8562 6.66776 23.8132 12.1014 26.0984C12.7107 26.3523 13.3709 26.3523 13.9803 26.0984C18.3474 24.2703 25.2537 18.0242 25.2537 6.75073C25.2537 5.78589 24.6443 4.92261 23.7303 4.51636ZM21.3435 10.3054L11.9998 19.6492C11.6951 20.0046 11.1365 20.0046 10.8318 19.6492L5.55057 14.3679C5.24588 14.0632 5.24588 13.5554 5.55057 13.2507L6.71854 12.0828C7.02323 11.7781 7.53104 11.7781 7.83573 12.0828L11.4412 15.6375L19.0584 8.02026C19.3631 7.71558 19.8709 7.71558 20.1756 8.02026L21.3435 9.18823C21.6482 9.49292 21.6482 10.0007 21.3435 10.3054Z" fill="#7C58D3"/>
</svg>
