<svg width="34" height="27" viewBox="0 0 34 27" fill="none" xmlns="http://www.w3.org/2000/svg">
<path d="M32.5193 18.1257H31.7068V12.6414C31.7068 12.032 31.4021 11.3718 30.9451 10.9148L25.9178 5.88745C25.4607 5.43042 24.8006 5.12573 24.1912 5.12573H21.9568V2.68823C21.9568 1.36792 20.8396 0.250732 19.5193 0.250732H6.51932C5.14823 0.250732 4.08182 1.36792 4.08182 2.68823V5.12573H1.23807C0.984165 5.12573 0.831821 5.32886 0.831821 5.53198V6.34448C0.831821 6.59839 0.984165 6.75073 1.23807 6.75073H15.0506C15.2537 6.75073 15.4568 6.95386 15.4568 7.15698V7.96948C15.4568 8.22339 15.2537 8.37573 15.0506 8.37573H2.86307C2.60917 8.37573 2.45682 8.57886 2.45682 8.78198V9.59448C2.45682 9.84839 2.60917 10.0007 2.86307 10.0007H13.4256C13.6287 10.0007 13.8318 10.2039 13.8318 10.407V11.2195C13.8318 11.4734 13.6287 11.6257 13.4256 11.6257H1.23807C0.984165 11.6257 0.831821 11.8289 0.831821 12.032V12.8445C0.831821 13.0984 0.984165 13.2507 1.23807 13.2507H11.8006C12.0037 13.2507 12.2068 13.4539 12.2068 13.657V14.4695C12.2068 14.7234 12.0037 14.8757 11.8006 14.8757H4.08182V21.3757C4.08182 24.0671 6.26542 26.2507 8.95682 26.2507C11.6482 26.2507 13.8318 24.0671 13.8318 21.3757H20.3318C20.3318 24.0671 22.5154 26.2507 25.2068 26.2507C27.8982 26.2507 30.0818 24.0671 30.0818 21.3757H32.5193C32.9256 21.3757 33.3318 21.0203 33.3318 20.5632V18.9382C33.3318 18.532 32.9256 18.1257 32.5193 18.1257ZM8.95682 23.8132C7.58573 23.8132 6.51932 22.7468 6.51932 21.3757C6.51932 20.0554 7.58573 18.9382 8.95682 18.9382C10.2771 18.9382 11.3943 20.0554 11.3943 21.3757C11.3943 22.7468 10.2771 23.8132 8.95682 23.8132ZM25.2068 23.8132C23.8357 23.8132 22.7693 22.7468 22.7693 21.3757C22.7693 20.0554 23.8357 18.9382 25.2068 18.9382C26.5271 18.9382 27.6443 20.0554 27.6443 21.3757C27.6443 22.7468 26.5271 23.8132 25.2068 23.8132ZM29.2693 13.2507H21.9568V7.56323H24.1912L29.2693 12.6414V13.2507Z" fill="#7C58D3"/>
</svg>
