<svg width="24" height="27" viewBox="0 0 24 27" fill="none" xmlns="http://www.w3.org/2000/svg">
<path d="M16.9568 18.1257H15.7381C14.6209 18.6843 13.4021 18.9382 12.0818 18.9382C10.7615 18.9382 9.49198 18.6843 8.37479 18.1257H7.20682C3.60135 18.1257 0.706821 21.071 0.706821 24.6257C0.706821 25.5398 1.41776 26.2507 2.33182 26.2507H21.8318C22.6951 26.2507 23.4568 25.5398 23.4568 24.6257C23.4568 21.071 20.5115 18.1257 16.9568 18.1257ZM3.14432 11.6257C3.55057 11.6257 3.95682 11.2703 3.95682 10.8132V10.0007C3.95682 5.53198 7.56229 1.87573 12.0818 1.87573C16.5506 1.87573 20.2068 5.53198 20.2068 10.0007V10.8132C20.156 13.0984 18.3787 14.8757 16.1443 14.8757H14.5193C14.5193 14.0125 13.7576 13.2507 12.8943 13.2507H11.2693C10.3553 13.2507 9.64432 14.0125 9.64432 14.8757C9.64432 15.7898 10.3553 16.5007 11.2693 16.5007H16.1443C19.242 16.5007 21.781 13.9617 21.8318 10.8132V10.0007C21.8318 4.6687 17.4139 0.250732 12.0818 0.250732C6.69901 0.250732 2.33182 4.6687 2.33182 10.0007V10.8132C2.33182 11.2703 2.68729 11.6257 3.14432 11.6257ZM11.2693 11.6257H12.8943C14.0623 11.6765 15.1287 12.2859 15.6873 13.2507H16.1443C17.4646 13.2507 18.531 12.1843 18.5818 10.8132V10.0007C18.5818 6.44604 15.6365 3.50073 12.0818 3.50073C8.47635 3.50073 5.58182 6.44604 5.58182 10.0007C5.58182 12.0828 6.54667 13.8601 8.01932 15.0789C8.01932 15.0281 8.01932 14.9773 8.01932 14.8757C8.01932 13.0984 9.4412 11.6765 11.2693 11.6257Z" fill="#7C58D3"/>
</svg>
