<svg width="14" height="14" viewBox="0 0 14 14" fill="none" xmlns="http://www.w3.org/2000/svg">
<path d="M12.0078 2.74609C13.2383 3.97656 14 5.58789 14 7.3457C14 10.9199 11.0117 13.8496 7.4082 13.8496C6.32422 13.8496 5.26953 13.5566 4.30273 13.0586L0.875 13.9375L1.7832 10.5684C1.22656 9.60156 0.904297 8.48828 0.904297 7.31641C0.904297 3.74219 3.83398 0.8125 7.4082 0.8125C9.16602 0.8125 10.8066 1.51562 12.0078 2.74609ZM7.4082 12.7363C10.3965 12.7363 12.8867 10.3047 12.8867 7.3457C12.8867 5.88086 12.2715 4.5332 11.2461 3.50781C10.2207 2.48242 8.87305 1.92578 7.4375 1.92578C4.44922 1.92578 2.01758 4.35742 2.01758 7.31641C2.01758 8.3418 2.31055 9.33789 2.83789 10.2168L2.98438 10.4219L2.42773 12.4141L4.47852 11.8574L4.6543 11.9746C5.50391 12.4727 6.44141 12.7363 7.4082 12.7363ZM10.3965 8.69336C10.543 8.78125 10.6602 8.81055 10.6895 8.89844C10.748 8.95703 10.748 9.2793 10.6016 9.66016C10.4551 10.041 9.81055 10.3926 9.51758 10.4219C8.99023 10.5098 8.58008 10.4805 7.55469 10.0117C5.91406 9.30859 4.85938 7.66797 4.77148 7.58008C4.68359 7.46289 4.12695 6.70117 4.12695 5.88086C4.12695 5.08984 4.53711 4.70898 4.68359 4.5332C4.83008 4.35742 5.00586 4.32812 5.12305 4.32812C5.21094 4.32812 5.32812 4.32812 5.41602 4.32812C5.5332 4.32812 5.65039 4.29883 5.79688 4.62109C5.91406 4.94336 6.26562 5.73438 6.29492 5.82227C6.32422 5.91016 6.35352 5.99805 6.29492 6.11523C6.00195 6.73047 5.65039 6.70117 5.82617 6.99414C6.4707 8.07812 7.08594 8.45898 8.05273 8.92773C8.19922 9.01562 8.28711 8.98633 8.4043 8.89844C8.49219 8.78125 8.81445 8.40039 8.90234 8.25391C9.01953 8.07812 9.13672 8.10742 9.2832 8.16602C9.42969 8.22461 10.2207 8.60547 10.3965 8.69336Z" fill="white"/>
</svg>
