<svg width="1407" height="972" viewBox="0 0 1407 972" fill="none" xmlns="http://www.w3.org/2000/svg">
<path fill-rule="evenodd" clip-rule="evenodd" d="M295.861 -265.173C55.0306 -230.161 10.8347 -81.5686 40.4458 48.5678C70.0569 178.704 312.519 209.924 406.744 339.146C468.382 423.676 481.422 782.608 681.631 829.994C1011.27 908.014 1481.89 750.741 1481.89 750.741L1386.52 94.718L1312.71 -413C1312.71 -413 536.691 -300.184 295.861 -265.173Z" fill="#DCFF02"/>
<path fill-rule="evenodd" clip-rule="evenodd" d="M500.163 -222C277.809 -222 218.316 -93.4533 227.984 28.1071C237.651 149.668 452.775 209.767 520.985 338.994C565.605 423.528 530.215 749.785 705.009 818.948C992.805 932.824 1439 852.482 1439 852.482V246.776V-222C1439 -222 722.516 -222 500.163 -222Z" fill="#9C5BF5"/>
<path fill-rule="evenodd" clip-rule="evenodd" d="M469.629 -252C230.845 -252 192.181 -124.75 202.563 -0.928329C212.945 122.893 322.463 153.002 444.567 271.149C592.397 414.19 499.062 737.862 686.772 808.311C995.834 924.305 1475 832.309 1475 832.309V225.496V-252C1475 -252 708.414 -252 469.629 -252Z" stroke="#9C5BF5" stroke-width="4" stroke-linecap="round" stroke-dasharray="190"/>
</svg>
