<svg width="78" height="63" viewBox="0 0 78 63" fill="none" xmlns="http://www.w3.org/2000/svg">
<g id="Group">
<path id="Fill 4" fill-rule="evenodd" clip-rule="evenodd" d="M12.5478 53.6602C10.3626 54.1564 9.41106 54.3891 7.93262 55.1688C7.97019 56.4706 8.08337 57.836 8.24071 59.2892C8.32195 60.0665 9.45944 61.5338 12.2839 60.231C13.8581 59.5064 13.0691 54.9357 15.7903 52.9465C15.8194 52.9241 15.8363 52.8977 15.8654 52.875C14.5335 53.2073 13.4378 53.4588 12.5478 53.6602" fill="#FFDA47"/>
<path id="Fill 5" fill-rule="evenodd" clip-rule="evenodd" d="M70.846 30.9016C68.2372 31.2271 60.2105 31.2893 55.5293 28.125C55.6432 28.33 55.7536 28.5342 55.8842 28.7365C58.6114 32.9131 62.8098 34.9789 66.1727 36C67.6644 35.7758 69.1584 35.4268 70.6611 34.8824C73.6772 33.7918 72.5123 30.6958 70.846 30.9016" fill="#7C58D3"/>
<path id="Fill 6" fill-rule="evenodd" clip-rule="evenodd" d="M29.9048 7.27186C33.6934 5.91781 38.6756 8.49805 43.108 13.5C43.8437 13.1988 44.5822 12.8976 45.3303 12.6002C40.5796 7.27186 35.1362 4.53447 30.9469 6.03154C29.3632 6.59673 28.1161 7.72022 27.1982 9.25451C27.9293 8.34125 28.8262 7.65647 29.9048 7.27186" fill="#7C58D3"/>
<path id="Fill 7" fill-rule="evenodd" clip-rule="evenodd" d="M51.6761 40.5C51.0701 44.0124 49.8847 46.5406 48.1289 47.5358C47.2661 48.021 46.3187 48.0966 45.3301 47.8212C46.8079 48.5221 48.2257 48.5818 49.498 47.8616C51.2806 46.8529 52.5338 44.4463 53.2629 41.1381C52.7375 40.9238 52.2096 40.7099 51.6761 40.5" fill="#8D6EC8"/>
<path id="Fill 8" fill-rule="evenodd" clip-rule="evenodd" d="M43.7507 8.80799C38.9705 3.66888 33.5616 1.21323 29.2186 2.92522C22.0332 5.76652 20.5274 18.9322 25.8586 32.3289C31.1888 45.7316 41.3405 54.2912 48.5305 51.4506C51.2803 50.3636 53.1905 47.7624 54.2098 44.2177C54.5561 43.0079 55.2038 51.8653 47.8532 54.5879C39.9185 57.5265 28.7949 48.127 22.866 33.2164C16.9285 18.3027 18.4988 3.69443 26.3669 0.587159C31.5379 -1.45939 38.147 1.97824 43.7507 8.80799" fill="#7C58D3"/>
<path id="Fill 9" fill-rule="evenodd" clip-rule="evenodd" d="M21.6848 33.1276C17.7257 23.3018 17.4372 13.6233 20.3424 7.875C16.6833 9.84852 14.0294 17.8011 16.7989 28.5538C16.7945 28.5574 16.7901 28.5591 16.7856 28.5627C12.574 30.8573 10.5536 31.5819 6.22237 30.5594C2.75686 29.7375 1.58745 26.2089 1.34084 26.6902C-1.70322 32.6011 5.09861 37.0829 9.07686 36.79C8.80264 43.1023 4.85273 46.202 3.08776 48.6065C0.773619 51.7594 0.331551 56.025 0.00321954 61.2096C-0.0527292 62.0516 0.607614 63.7407 2.99832 62.6377C4.33152 62.0205 4.41471 57.0414 6.82787 55.1899C9.01944 53.5086 9.89732 53.6252 14.0747 52.1675C18.8178 50.514 22.9301 47.5427 23.508 43.7401C23.8378 44.2431 24.1547 44.7558 24.5092 45.2377C30.361 53.3773 35.131 51.8147 35.131 51.8147C29.1558 48.2883 24.7388 40.7099 21.6848 33.1276" fill="#FFDA47"/>
<path id="Fill 10" fill-rule="evenodd" clip-rule="evenodd" d="M70.635 9C71.2405 7.10174 72.3614 2.63863 69.7084 1.21429C68.5399 0.588914 66.9697 3.38557 63.4619 5.33638C65.0921 5.76703 68.5793 6.90238 70.635 9" fill="#7C58D3"/>
<path id="Fill 11" fill-rule="evenodd" clip-rule="evenodd" d="M65.8334 11.2544C66.4532 11.3102 66.912 11.8567 66.8579 12.4758C66.7997 13.0944 66.2475 13.5505 65.6253 13.4955C65.0071 13.4389 64.5466 12.8916 64.5999 12.2746C64.6605 11.656 65.2078 11.1999 65.8334 11.2544ZM72.5755 41.0692C69.4254 40.9664 60.8335 39.6288 56.236 32.8295C51.8228 26.3038 56.6254 19.1554 64.3734 21.3046C76.7714 24.7419 77.1906 18.1236 77.0426 16.0781C73.3712 14.7048 70.7984 14.4684 70.331 12.0917C69.3219 6.92577 64.5653 6.50521 63.1599 6.0055C62.944 5.22202 61.7977 1.1671 59.6926 1.12516C58.584 1.10327 59.5607 5.28148 56.3176 8.07692C46.051 11.9881 35.983 17.1205 27.1982 22.301C27.7274 25.2107 28.5493 28.2326 29.719 31.2739C30.8984 34.3425 32.3224 37.1507 33.8865 39.6595C36.0771 39.5748 38.669 39.6533 42.0537 39.8258C53.4663 40.3594 61.8426 46.5248 71.8707 44.6445C74.8401 44.0886 74.1615 41.1207 72.5755 41.0692V41.0692Z" fill="#7C58D3"/>
</g>
</svg>
