<svg width="438" height="294" viewBox="0 0 438 294" fill="none" xmlns="http://www.w3.org/2000/svg">
<g clip-path="url(#clip0_2237_898)">
<rect width="437" height="294" rx="8" fill="#7C58D3"/>
<g opacity="0.5">
<path d="M405.412 229.122C405.178 227.147 403.987 225.45 402.225 224.583C400.464 223.717 398.416 223.821 396.748 224.861L392.728 227.368C392.061 227.784 391.554 228.395 391.262 229.132C390.97 229.871 390.921 230.668 391.12 231.437C391.319 232.207 391.747 232.877 392.358 233.374C392.969 233.872 393.706 234.15 394.488 234.179L394.54 234.181C396.502 234.268 398.354 235.187 399.629 236.707C399.957 237.099 400.355 237.411 400.802 237.631C401.044 237.75 401.302 237.842 401.571 237.905C402.334 238.084 403.116 238.009 403.833 237.69C404.55 237.371 405.134 236.837 405.523 236.146C405.911 235.455 406.067 234.673 405.974 233.882L405.412 229.122Z" fill="#EFEFEF"/>
<path d="M394.717 223.99C395.536 224.061 396.33 223.749 396.953 223.111C397.546 222.504 397.913 221.668 397.987 220.757C398.06 219.846 397.832 218.959 397.345 218.259C396.833 217.523 396.101 217.08 395.282 217.01C393.636 216.868 392.17 218.318 392.013 220.244C391.89 221.777 392.635 223.156 393.775 223.724C394.066 223.869 394.382 223.962 394.717 223.99Z" fill="#EFEFEF"/>
<path d="M400.81 222.722C402.501 223.476 404.634 222.644 405.566 220.868C406.497 219.091 405.88 217.033 404.19 216.278C402.5 215.524 400.366 216.356 399.434 218.133C398.503 219.909 399.12 221.968 400.81 222.722Z" fill="#EFEFEF"/>
<path d="M405.903 226.161V226.161C406.131 226.382 406.388 226.559 406.665 226.692C407.956 227.315 409.668 226.985 410.847 225.777C411.525 225.082 411.932 224.198 411.992 223.287C412.055 222.334 411.736 221.466 411.094 220.843C410.451 220.22 409.571 219.926 408.616 220.016C407.704 220.102 406.828 220.532 406.15 221.227C404.719 222.693 404.608 224.906 405.903 226.161Z" fill="#EFEFEF"/>
<path d="M413.677 228.711L413.677 228.71C412.865 227.051 410.78 226.505 409.029 227.491C407.279 228.478 406.513 230.631 407.323 232.289C407.618 232.894 408.083 233.351 408.639 233.64C409.608 234.144 410.856 234.136 411.971 233.509C413.721 232.521 414.487 230.369 413.677 228.711Z" fill="#EFEFEF"/>
<path d="M395.412 176.122C395.178 174.147 393.987 172.45 392.225 171.583C390.464 170.717 388.416 170.821 386.748 171.861L382.728 174.368C382.061 174.784 381.554 175.395 381.262 176.132C380.97 176.871 380.921 177.668 381.12 178.437C381.319 179.207 381.747 179.877 382.358 180.374C382.969 180.872 383.706 181.15 384.488 181.179L384.54 181.181C386.502 181.268 388.354 182.187 389.629 183.707C389.957 184.099 390.355 184.411 390.802 184.631C391.044 184.75 391.302 184.842 391.571 184.905C392.334 185.084 393.116 185.009 393.833 184.69C394.55 184.371 395.134 183.837 395.523 183.146C395.911 182.455 396.067 181.673 395.974 180.882L395.412 176.122Z" fill="#EFEFEF"/>
<path d="M384.717 170.99C385.536 171.061 386.33 170.749 386.953 170.111C387.546 169.504 387.913 168.668 387.987 167.757C388.06 166.846 387.832 165.959 387.345 165.259C386.833 164.523 386.101 164.08 385.282 164.01C383.636 163.868 382.17 165.318 382.013 167.244C381.89 168.777 382.635 170.156 383.775 170.724C384.066 170.869 384.382 170.962 384.717 170.99Z" fill="#EFEFEF"/>
<path d="M390.81 169.722C392.501 170.476 394.634 169.644 395.566 167.868C396.497 166.091 395.88 164.033 394.19 163.278C392.5 162.524 390.366 163.356 389.434 165.133C388.503 166.909 389.12 168.968 390.81 169.722Z" fill="#EFEFEF"/>
<path d="M395.903 173.161V173.161C396.131 173.382 396.388 173.559 396.665 173.692C397.956 174.315 399.668 173.985 400.847 172.777C401.525 172.082 401.932 171.198 401.992 170.287C402.055 169.334 401.736 168.466 401.094 167.843C400.451 167.22 399.571 166.926 398.616 167.016C397.704 167.102 396.828 167.532 396.15 168.227C394.719 169.693 394.608 171.906 395.903 173.161Z" fill="#EFEFEF"/>
<path d="M403.677 175.711L403.677 175.71C402.865 174.051 400.78 173.505 399.029 174.491C397.279 175.478 396.513 177.631 397.323 179.289C397.618 179.894 398.083 180.351 398.639 180.64C399.608 181.144 400.856 181.136 401.971 180.509C403.721 179.521 404.487 177.369 403.677 175.711Z" fill="#EFEFEF"/>
<path d="M341.294 220.854C341.014 218.596 339.585 216.657 337.471 215.666C335.357 214.676 332.899 214.795 330.897 215.984L326.073 218.85C325.273 219.325 324.665 220.022 324.315 220.866C323.964 221.709 323.905 222.62 324.144 223.5C324.382 224.38 324.896 225.145 325.629 225.713C326.362 226.282 327.246 226.6 328.185 226.633L328.248 226.635C330.602 226.735 332.825 227.785 334.354 229.523C334.749 229.97 335.226 230.327 335.762 230.578C336.053 230.714 336.362 230.82 336.685 230.892C337.6 231.095 338.539 231.011 339.4 230.646C340.26 230.281 340.961 229.671 341.427 228.881C341.893 228.092 342.08 227.197 341.969 226.294L341.294 220.854Z" fill="#EFEFEF"/>
<path d="M329.17 214.989C330.126 215.07 331.052 214.713 331.779 213.984C332.47 213.29 332.898 212.334 332.984 211.293C333.07 210.252 332.804 209.238 332.236 208.439C331.639 207.598 330.784 207.091 329.829 207.011C327.909 206.849 326.198 208.506 326.015 210.707C325.872 212.46 326.74 214.035 328.07 214.685C328.41 214.851 328.779 214.956 329.17 214.989Z" fill="#EFEFEF"/>
<path d="M336.069 214.642C338.001 215.612 340.439 214.543 341.504 212.259C342.569 209.975 341.863 207.328 339.931 206.358C337.999 205.388 335.561 206.458 334.496 208.742C333.431 211.026 334.137 213.673 336.069 214.642Z" fill="#EFEFEF"/>
<path d="M342.031 218.041L342.032 218.041C342.293 218.294 342.586 218.496 342.903 218.649C344.378 219.36 346.335 218.982 347.682 217.603C348.457 216.808 348.922 215.798 348.991 214.757C349.063 213.667 348.699 212.675 347.964 211.963C347.229 211.251 346.224 210.916 345.133 211.018C344.09 211.116 343.089 211.608 342.314 212.402C340.679 214.078 340.552 216.607 342.031 218.041Z" fill="#EFEFEF"/>
<path d="M348.677 221.711L348.677 221.71C347.865 220.051 345.78 219.505 344.029 220.491C342.279 221.478 341.513 223.631 342.323 225.289C342.618 225.894 343.083 226.351 343.639 226.64C344.608 227.144 345.856 227.136 346.971 226.509C348.721 225.521 349.487 223.369 348.677 221.711Z" fill="#EFEFEF"/>
<path d="M339.176 273.951C338.85 271.27 337.182 268.967 334.716 267.791C332.249 266.616 329.382 266.757 327.047 268.169L321.419 271.571C320.485 272.136 319.775 272.964 319.367 273.965C318.958 274.967 318.89 276.049 319.167 277.094C319.446 278.138 320.046 279.047 320.901 279.722C321.756 280.397 322.787 280.775 323.883 280.814L323.956 280.817C326.703 280.935 329.295 282.182 331.08 284.246C331.54 284.777 332.097 285.201 332.722 285.499C333.062 285.661 333.423 285.786 333.799 285.871C334.867 286.113 335.962 286.013 336.966 285.579C337.969 285.146 338.788 284.422 339.332 283.484C339.875 282.546 340.094 281.484 339.963 280.412L339.176 273.951Z" fill="#EFEFEF"/>
<path d="M324.623 266.987C325.715 267.079 326.774 266.677 327.604 265.857C328.395 265.076 328.884 264.001 328.982 262.83C329.08 261.659 328.776 260.518 328.127 259.618C327.445 258.673 326.468 258.102 325.376 258.012C323.182 257.83 321.227 259.695 321.018 262.171C320.854 264.142 321.846 265.914 323.366 266.645C323.754 266.832 324.177 266.951 324.623 266.987Z" fill="#EFEFEF"/>
<path d="M333.327 266.602C335.501 267.68 338.244 266.492 339.442 263.954C340.64 261.416 339.846 258.475 337.672 257.397C335.5 256.32 332.757 257.509 331.558 260.047C330.361 262.584 331.154 265.525 333.327 266.602Z" fill="#EFEFEF"/>
<path d="M340.161 271.921V271.921C340.455 272.206 340.785 272.433 341.14 272.605C342.8 273.404 345.002 272.98 346.517 271.428C347.389 270.534 347.912 269.397 347.99 268.226C348.071 267.001 347.661 265.884 346.835 265.084C346.008 264.283 344.877 263.905 343.65 264.02C342.477 264.131 341.351 264.684 340.479 265.577C338.639 267.462 338.496 270.308 340.161 271.921Z" fill="#EFEFEF"/>
<path d="M348.631 274.955L348.631 274.954C347.703 273.059 345.321 272.434 343.319 273.561C341.319 274.69 340.444 277.149 341.369 279.044C341.706 279.736 342.237 280.258 342.873 280.588C343.981 281.164 345.407 281.155 346.681 280.439C348.681 279.31 349.556 276.85 348.631 274.955Z" fill="#EFEFEF"/>
</g>
<g clip-path="url(#clip1_2237_898)">
<g style="mix-blend-mode:hard-light" opacity="0.560412">
<path fill-rule="evenodd" clip-rule="evenodd" d="M237 294C237 294 255.259 248.141 316.829 244.744C378.4 241.347 406.425 182.749 406.425 182.749L437.422 125V294H237Z" fill="#FBF9FF"/>
</g>
</g>
</g>
<defs>
<clipPath id="clip0_2237_898">
<rect width="437.422" height="294" fill="white"/>
</clipPath>
<clipPath id="clip1_2237_898">
<rect width="397.422" height="169" fill="white" transform="translate(40 125)"/>
</clipPath>
</defs>
</svg>
